<?xml version="1.0" encoding="UTF-8" standalone="no"?>
<!DOCTYPE svg PUBLIC "-//W3C//DTD SVG 1.1//EN" "http://www.w3.org/Graphics/SVG/1.1/DTD/svg11.dtd">
<svg width="100%" height="100%" viewBox="0 0 217 274" version="1.1" xmlns="http://www.w3.org/2000/svg" xmlns:xlink="http://www.w3.org/1999/xlink" xml:space="preserve" xmlns:serif="http://www.serif.com/" style="fill-rule:evenodd;clip-rule:evenodd;stroke-linejoin:round;stroke-miterlimit:2;">
    <g transform="matrix(1,0,0,1,-41.891,-13.5)">
        <path d="M256.6,86.9L256.6,59.8C256.5,58.9 255.8,58.1 255,57.9L250.1,56.8L249.3,56.8C247.7,57 234.6,59 233.9,59.1C232.6,59.3 231.3,59.8 230,60.2C229.8,60.3 229.6,60.4 229.4,60.5L228.8,60.9L79.3,25.6L79.3,18.3C79.3,17.4 78.6,16.4 77.6,16.2C77.6,16.2 72.8,15.1 72.7,15.1C72.6,15 72.2,15 72,15L55.8,17.4C51.4,18.1 47.9,21.3 45.8,25.1C44.6,27.3 43.8,29.7 43.5,32.2C43.3,33.8 43.4,35.5 43.6,37.1C43.9,39.1 44.6,41.1 45.7,42.9C46.9,44.9 48.6,46.6 50.8,47.4C53.2,48.3 55.6,49 58.2,49.3C59.9,49.5 61.5,49.3 63.2,49.1C63.4,49.1 66.8,48.7 66.8,48.6L66.8,242.2C66.8,243.2 67.5,244.1 68.5,244.4C68.5,244.4 240.7,285 240.9,285C241.5,285.1 242.2,285 242.7,284.6C243.3,284.2 243.6,283.5 243.6,282.8L243.6,90.4L254.9,88.7C255.7,88.6 256.5,87.8 256.6,86.9ZM229.5,65.5C228.8,66.2 228.3,67.2 227.8,68.1C227.3,69.1 226.8,70.1 226.5,71.2C226,72.7 225.7,74.4 225.5,76C225.4,76.8 225.4,77.6 225.5,78.4C225.5,79.2 225.7,80 225.8,80.8C224.9,79.1 224.9,76.8 225,75C225.4,71.4 226.8,67.7 229.5,65.5ZM221,72.3C220.8,73.5 220.6,74.7 220.6,75.9C220.6,77.2 220.7,78.7 221,80L69.4,44.3L68.6,44.1L59.4,42C58.9,41.8 58.4,41.7 57.9,41.4C57.3,41.1 56.8,40.5 56.4,39.9C55.2,38.2 54.8,36 55.1,34C55.3,32.4 55.8,30.9 56.6,29.5C57.2,28.5 58,27.6 59,27C59.5,26.7 60,26.4 60.6,26.3C61.3,26.1 61.9,26.2 62.6,26.2L76.6,29.5C76.6,29.5 224.1,64.2 224.7,64.4C223,65.7 221.6,69.8 221,72.3ZM75,24.6L65.1,22.3L75,20.8L75,24.6ZM71.1,49.1L223.2,84.9C224.7,87.2 227,88.9 229.6,89.8C231,90.3 232.6,90.5 234,90.8C235.7,91.1 237.5,91.3 239.3,91.1L239.3,265L71.1,225.3L71.1,49.1ZM241.1,86.4L238.1,86.8C237.2,86.8 236.3,86.8 235.4,86.6C234.2,86.3 233.1,85.5 232.3,84.5C231.3,83.3 230.7,81.8 230.3,80.3C229.7,77.7 229.8,74.9 230.8,72.3C231.4,70.5 232.4,68.8 233.7,67.4C234.4,66.7 235.1,66.1 235.9,65.6C236.8,65 237.8,64.8 238.8,64.5L252.4,62.5L252.4,84.7C252.3,84.8 241.1,86.4 241.1,86.4ZM47.7,34.4C47.6,31.4 48.7,28.3 50.3,25.9C50.9,25 51.6,24.3 52.4,23.6C50.9,25 50,27.2 49.3,29.1C48.8,30.7 48.4,32.3 48.3,34C48.1,35.7 48.4,37.3 48.5,39C48.4,38.1 48.1,37.3 48,36.5C47.8,35.8 47.7,35.1 47.7,34.4ZM71.1,240.5L71.1,229.7L239.2,269.3L239.2,280.1L71.1,240.5Z" style="fill:rgb(77,77,77);fill-rule:nonzero;stroke:black;stroke-width:3px;"/>
    </g>
</svg>
