<?xml version="1.0" encoding="utf-8"?>
<!-- Generator: Adobe Illustrator 22.0.1, SVG Export Plug-In . SVG Version: 6.00 Build 0)  -->
<!DOCTYPE svg PUBLIC "-//W3C//DTD SVG 1.1//EN" "http://www.w3.org/Graphics/SVG/1.1/DTD/svg11.dtd">
<svg version="1.1" id="Laag_1" xmlns="http://www.w3.org/2000/svg" xmlns:xlink="http://www.w3.org/1999/xlink" x="0px" y="0px"
	 viewBox="0 0 300 300" style="enable-background:new 0 0 300 300;" xml:space="preserve">
<style type="text/css">
	.st0{fill:#4D4D4D;}
</style>
<path class="st0" d="M256.6,86.9c0-0.1,0-0.2,0-0.3V60c0-0.1,0-0.1,0-0.2c-0.1-0.9-0.8-1.7-1.6-1.9l-4.9-1.1c-0.1,0-0.3,0-0.4,0
	c-0.1,0-0.3,0-0.4,0c-1.6,0.2-14.7,2.2-15.4,2.3c-1.3,0.2-2.6,0.7-3.9,1.1c-0.2,0.1-0.4,0.2-0.6,0.3l-0.6,0.4L79.3,25.6v-7.3
	c0-0.9-0.7-1.9-1.7-2.1c0,0-4.8-1.1-4.9-1.1C72.6,15,72.2,15,72,15c0,0-16.2,2.4-16.2,2.4c-4.4,0.7-7.9,3.9-10,7.7
	c-1.2,2.2-2,4.6-2.3,7.1c-0.2,1.6-0.1,3.3,0.1,4.9c0.3,2,1,4,2.1,5.8c1.2,2,2.9,3.7,5.1,4.5c2.4,0.9,4.8,1.6,7.4,1.9
	c1.7,0.2,3.3,0,5-0.2c0.2,0,3.6-0.4,3.6-0.5c0,0,0,193.6,0,193.6c0,1,0.7,1.9,1.7,2.2c0,0,172.2,40.6,172.4,40.6
	c0.6,0.1,1.3,0,1.8-0.4c0.6-0.4,0.9-1.1,0.9-1.8V90.4c0,0,11.3-1.7,11.3-1.7C255.7,88.6,256.5,87.8,256.6,86.9z M229.5,65.5
	c-0.7,0.7-1.2,1.7-1.7,2.6c-0.5,1-1,2-1.3,3.1c-0.5,1.5-0.8,3.2-1,4.8c-0.1,0.8-0.1,1.6,0,2.4c0,0.8,0.2,1.6,0.3,2.4
	c-0.9-1.7-0.9-4-0.8-5.8C225.4,71.4,226.8,67.7,229.5,65.5z M221,72.3c-0.2,1.2-0.4,2.4-0.4,3.6c0,1.3,0.1,2.8,0.4,4.1
	c0,0-151.6-35.7-151.6-35.7c0,0-0.8-0.2-0.8-0.2L59.4,42c-0.5-0.2-1-0.3-1.5-0.6c-0.6-0.3-1.1-0.9-1.5-1.5c-1.2-1.7-1.6-3.9-1.3-5.9
	c0.2-1.6,0.7-3.1,1.5-4.5c0.6-1,1.4-1.9,2.4-2.5c0.5-0.3,1-0.6,1.6-0.7c0.7-0.2,1.3-0.1,2-0.1c0,0,14,3.3,14,3.3
	c0,0,147.5,34.7,148.1,34.9C223,65.7,221.6,69.8,221,72.3z M75,24.6l-9.9-2.3l9.9-1.5V24.6z M71.1,49.1l152.1,35.8
	c1.5,2.3,3.8,4,6.4,4.9c1.4,0.5,3,0.7,4.4,1c1.7,0.3,3.5,0.5,5.3,0.3v173.9L71.1,225.3V49.1z M241.1,86.4l-3,0.4
	c-0.9,0-1.8,0-2.7-0.2c-1.2-0.3-2.3-1.1-3.1-2.1c-1-1.2-1.6-2.7-2-4.2c-0.6-2.6-0.5-5.4,0.5-8c0.6-1.8,1.6-3.5,2.9-4.9
	c0.7-0.7,1.4-1.3,2.2-1.8c0.9-0.6,1.9-0.8,2.9-1.1l13.6-2v22.2C252.3,84.8,241.1,86.4,241.1,86.4z M47.7,34.4c-0.1-3,1-6.1,2.6-8.5
	c0.6-0.9,1.3-1.6,2.1-2.3c-1.5,1.4-2.4,3.6-3.1,5.5c-0.5,1.6-0.9,3.2-1,4.9c-0.2,1.7,0.1,3.3,0.2,5c-0.1-0.9-0.4-1.7-0.5-2.5
	C47.8,35.8,47.7,35.1,47.7,34.4z M71.1,240.5v-10.8l168.1,39.6v10.8L71.1,240.5z"/>
</svg>
