<?xml version="1.0" encoding="utf-8"?>
<!-- Generator: Adobe Illustrator 22.0.1, SVG Export Plug-In . SVG Version: 6.00 Build 0)  -->
<!DOCTYPE svg PUBLIC "-//W3C//DTD SVG 1.1//EN" "http://www.w3.org/Graphics/SVG/1.1/DTD/svg11.dtd">
<svg version="1.1" id="Laag_1" xmlns="http://www.w3.org/2000/svg" xmlns:xlink="http://www.w3.org/1999/xlink" x="0px" y="0px"
	 viewBox="0 0 300 300" style="enable-background:new 0 0 300 300;" xml:space="preserve">
<style type="text/css">
	.st0{fill:#4D4D4D;}
</style>
<path class="st0" d="M256.2,60.4c0-0.6-0.3-1.1-0.7-1.5c-0.5-0.6-1.2-1-2.1-0.9l-0.1,0l-183-43.1c-0.2-0.1-0.5-0.1-0.7,0
	c0,0-24.2,2.9-24.3,2.9c-0.1,0-0.2,0.1-0.4,0.1c-0.1,0-0.3,0.1-0.4,0.2c-0.1,0.1-0.2,0.1-0.2,0.2c-0.1,0.1-0.3,0.2-0.4,0.3
	c-0.1,0.1-0.1,0.2-0.2,0.3c-0.1,0.1-0.2,0.3-0.2,0.4c0,0,0,0.1,0,0.1c0,0.1,0,0.2,0,0.3c0,0.1-0.1,0.2,0,0.3l0.8,13.6
	c0.1,0.9,0.7,1.7,1.6,2l6.5,1.5c0,5.2-0.1,27.9,1.6,62.8c1.5,32,6.1,59.2,7.9,68.7c-1.1,0.1-1.7,0.3-1.9,0.4c-0.7,0.3-1.2,1-1.3,1.7
	c-0.1,0.8,0.2,1.5,0.9,2c0.1,0.1,1.5,1.1,3.6,2.1c-1.3,6.5-5.4,26.7-7.2,36.2L50.8,239c-0.1,0.8,0.1,1.5,0.7,2
	c0.2,0.2,4.3,3.5,8.8,4.1c0,0.1,0.1,0.2,0.1,0.3c0.4,0.7,1.9,2.9,7.6,2.9c0.7,0,1.4,0,2.1-0.1c5.2-0.4,7.1-0.7,7.7-0.8
	c2.2,1.1,5.6,2.1,10.2,3c1.3,0.3,2.6-0.8,2.6-2.1v-3.1c2.2,0.8,4.6,1.4,6.4,1.7c1.5,0.3,2.9-1.2,2.4-2.7c0,0-2-6.3-2-6.4
	c0.1,0.2,1.6-0.6,1.7-0.7c0.5-0.5,0.7-1.3,0.6-2c-0.1-0.2-5.3-20.5-7.9-29.3c-2-7-8.2-22.5-10.9-29.3c1.1-0.2,1.9-1.2,1.8-2.3
	c0-0.4-0.2-0.8-0.5-1.2c7.7-5.6,24.7-20,39.2-46.3c16.2-25.3,20.6-59.5,21.5-68.1l12.9,3.1c-0.1,5.9,0.2,36.8,20,79.1
	c11,23.8,37.1,55.4,45.3,65.1c-0.6,0.2-1.1,0.5-1.4,1.1c-0.4,0.9-0.2,1.9,0.6,2.5c0.1,0.1,0.6,0.5,1.6,1.1
	c-3.8,5.9-13.8,21.4-17.6,29.1c-4.6,9.2-13.1,24.4-13.2,24.6c-0.4,0.7-0.4,1.7,0.2,2.3c2,2.6,4.4,5.5,7.4,7c0.7,0.3,1.4,0.5,2.1,0.2
	c-0.2,0.1,1.5,2.8,1.6,3c1.2,1.5,2.9,2.6,4.7,3.2c2.3,0.8,4.8,0.7,7.2,0c0,0,0,0,0.1,0c0,0,2.6-0.6,6.9-0.6c-0.5,3,2.3,4.8,4.8,5.4
	c0.6,0.1,1,0.2,1.5,0.2c1.6,0,2.6-0.7,3.3-1.2c0.9-0.6,1.9-1.4,5.1-1.4c3.5,0,4.9,0.4,5.3,0.5c0.4,0.5,1.1,0.9,1.8,0.8
	c1.2,0,2.1-1,2.1-2.1c0-0.1,0-0.2,0-0.3l-4.6-70.3c0-0.1-0.1-0.2-0.1-0.4c0.4-0.2,0.6-0.3,0.7-0.4c0.8-0.5,1.2-1.4,1-2.3
	c-0.2-0.9-1-1.6-1.9-1.6c0,0-0.1,0-0.3,0c1.8-10.5,5.4-35,6.4-63.9c1.1-32.9-0.4-58.5-0.9-65.5l9.2-1.4c1.1-0.2,1.9-1.1,1.8-2.2
	L256.2,60.4z M69.7,19.3l172.6,40.6l-12.3,2L57.8,20.7L69.7,19.3z M47.9,22.8l179.9,43v8.5L48.5,31.9L47.9,22.8z M220.7,135
	c2.7,24.9,8.6,59,10.7,70.7c-4-6.9-26.3-45.1-33.1-62.5c-8-20.6-16.1-63.8-18.3-75.8l15.5,3.7c0.5,3.9,5.8,45.6,13.5,67.7
	c0.3,0.9,1.1,1.4,2,1.4c0.2,0,0.5,0,0.7-0.1c1.1-0.4,1.7-1.6,1.3-2.7c-6.9-19.8-12-56.7-13.1-65.3l16.9,4
	C217,82.5,217.7,108.5,220.7,135z M77.4,240.9l-2.1-53.7l9.8,52.9C82.4,239.9,79.5,240,77.4,240.9z M69.9,170.2
	C69.9,170.2,69.9,170.2,69.9,170.2c1.2-6.3,5.9-30,10-59.5c4.1-28.9,2.1-57.8,1.4-66.6L97.9,48c-0.4,4.5-4.7,49.2-13,68.3
	c-0.5,1.1,0,2.3,1.1,2.8c0.3,0.1,0.6,0.2,0.9,0.2c0.8,0,1.6-0.5,2-1.3c8.5-19.3,12.6-61.7,13.3-69l13.9,3.3c0,0.1,0,0.1,0,0.2
	c0,0.4-1.6,36.4-10.8,59c-8.8,21.6-32.3,55.1-34.9,58.8C70.1,170.3,70,170.2,69.9,170.2z M56.7,38.3L77,43.1c0.6,6.3,3,36.6-1.2,67
	c-3.8,27-8.1,49.2-9.7,57.4c-1.8-9.7-6.2-36.4-7.7-67.7C56.7,67,56.6,44.9,56.7,38.3z M60.2,211.9c1.3-7.2,4-20.6,5.8-29.5
	l-5.4,58.5c-2-0.4-4-1.5-5.3-2.4L60.2,211.9z M69.8,244c-3,0.2-4.5-0.1-5.2-0.4l6-65.5l2.6,65.6c0,0,0,0,0,0
	C72.3,243.8,71.2,243.9,69.8,244z M86.3,245.7c-1.7-0.4-3.4-0.9-4.7-1.3c1.2-0.1,2.6-0.1,3.9,0c0.3,0,0.5,0,0.7-0.1V245.7z
	 M89.7,240.1c0.7-0.4,2-0.9,3.5-1.4l1,3.2C92.2,241.3,90.4,240.6,89.7,240.1z M95,233.9c-1.9,0.4-4.3,1-6.3,1.9l-9.8-52.7
	c3,7.6,7.2,18.4,8.8,23.8C89.7,214,93.5,228.3,95,233.9z M117.7,124.6c-17.1,31.1-38.3,45.3-41.4,47.3c-0.5-0.1-1.1-0.2-1.7-0.3
	c5.1-7.3,26-37.6,34.5-58.4c8.9-21.9,10.8-54.6,11.1-59.8l18.5,4.4C138,64.9,133.6,99.6,117.7,124.6z M160.1,62.8l15.2,3.6
	c1.5,8.7,10.1,55.9,18.8,78.4c6.2,16,24.6,48.1,31.5,59.9c-6-7.1-34.6-41.2-45.9-65.6C161.4,99.9,160.1,70.1,160.1,62.8z
	 M201.5,270.4c-0.2-0.2-0.5-0.4-0.8-0.5c-1.4-0.5-3.6-2.8-5.2-4.7c2.2-3.9,8.7-15.8,12.6-23.5c3.8-7.6,14.4-24.1,17.8-29.3
	c0.2,0.1,0.3,0.1,0.5,0.2L201.5,270.4z M208.8,276.1c-2.4-0.7-3.3-2.2-3.7-3l23.9-55.4l-14,57.5
	C213.8,275.7,211.4,276.8,208.8,276.1z M219.4,275.2l8.8-35.9l-6.1,35.9C221,275.1,220.2,275.1,219.4,275.2z M240.7,278.4
	c-1.7-0.3-3.5-0.3-4.7-0.3c-4.6,0-6.4,1.3-7.6,2.1c-0.8,0.5-0.7,0.5-1.4,0.4c-1-0.2-1.4-0.5-1.6-0.7l11.1-65L240.7,278.4z
	 M242,142.3c-1,28.9-4.6,53.3-6.4,63.6c-1.9-10.8-8-45.9-10.8-71.3c-2.8-25.1-3.5-49.6-3.7-57.4l8.5,2c0.2,0,0.3,0.1,0.5,0.1
	c0.1,0,0.2,0,0.3,0l10.7-1.6C241.7,84.9,243.2,110.2,242,142.3z M232.1,74.7v-8.7l19.9-3.2l0.2,9L232.1,74.7z"/>
</svg>
