<?xml version="1.0" encoding="UTF-8" standalone="no"?>
<!DOCTYPE svg PUBLIC "-//W3C//DTD SVG 1.1//EN" "http://www.w3.org/Graphics/SVG/1.1/DTD/svg11.dtd">
<svg width="100%" height="100%" viewBox="0 0 217 274" version="1.1" xmlns="http://www.w3.org/2000/svg" xmlns:xlink="http://www.w3.org/1999/xlink" xml:space="preserve" xmlns:serif="http://www.serif.com/" style="fill-rule:evenodd;clip-rule:evenodd;stroke-linejoin:round;stroke-miterlimit:2;">
    <g transform="matrix(1,0,0,1,-41.9556,-13.325)">
        <path d="M256.2,60.4C256.2,59.8 255.9,59.3 255.5,58.9C255,58.3 254.3,57.9 253.4,58L253.3,58L70.3,14.9C70.1,14.8 69.8,14.8 69.6,14.9C69.6,14.9 45.4,17.8 45.3,17.8C45.2,17.8 45.1,17.9 44.9,17.9C44.8,17.9 44.6,18 44.5,18.1C44.4,18.2 44.3,18.2 44.3,18.3C44.2,18.4 44,18.5 43.9,18.6C43.8,18.7 43.8,18.8 43.7,18.9C43.6,19 43.5,19.2 43.5,19.3L43.5,19.7C43.5,19.8 43.4,19.9 43.5,20L44.3,33.6C44.4,34.5 45,35.3 45.9,35.6L52.4,37.1C52.4,42.3 52.3,65 54,99.9C55.5,131.9 60.1,159.1 61.9,168.6C60.8,168.7 60.2,168.9 60,169C59.3,169.3 58.8,170 58.7,170.7C58.6,171.5 58.9,172.2 59.6,172.7C59.7,172.8 61.1,173.8 63.2,174.8C61.9,181.3 57.8,201.5 56,211L50.8,239C50.7,239.8 50.9,240.5 51.5,241C51.7,241.2 55.8,244.5 60.3,245.1C60.3,245.2 60.4,245.3 60.4,245.4C60.8,246.1 62.3,248.3 68,248.3C68.7,248.3 69.4,248.3 70.1,248.2C75.3,247.8 77.2,247.5 77.8,247.4C80,248.5 83.4,249.5 88,250.4C89.3,250.7 90.6,249.6 90.6,248.3L90.6,245.2C92.8,246 95.2,246.6 97,246.9C98.5,247.2 99.9,245.7 99.4,244.2C99.4,244.2 97.4,237.9 97.4,237.8C97.5,238 99,237.2 99.1,237.1C99.6,236.6 99.8,235.8 99.7,235.1C99.6,234.9 94.4,214.6 91.8,205.8C89.8,198.8 83.6,183.3 80.9,176.5C82,176.3 82.8,175.3 82.7,174.2C82.7,173.8 82.5,173.4 82.2,173C89.9,167.4 106.9,153 121.4,126.7C137.6,101.4 142,67.2 142.9,58.6L155.8,61.7C155.7,67.6 156,98.5 175.8,140.8C186.8,164.6 212.9,196.2 221.1,205.9C220.5,206.1 220,206.4 219.7,207C219.3,207.9 219.5,208.9 220.3,209.5C220.4,209.6 220.9,210 221.9,210.6C218.1,216.5 208.1,232 204.3,239.7C199.7,248.9 191.2,264.1 191.1,264.3C190.7,265 190.7,266 191.3,266.6C193.3,269.2 195.7,272.1 198.7,273.6C199.4,273.9 200.1,274.1 200.8,273.8C200.6,273.9 202.3,276.6 202.4,276.8C203.6,278.3 205.3,279.4 207.1,280C209.4,280.8 211.9,280.7 214.3,280L214.4,280C214.4,280 217,279.4 221.3,279.4C220.8,282.4 223.6,284.2 226.1,284.8C226.7,284.9 227.1,285 227.6,285C229.2,285 230.2,284.3 230.9,283.8C231.8,283.2 232.8,282.4 236,282.4C239.5,282.4 240.9,282.8 241.3,282.9C241.7,283.4 242.4,283.8 243.1,283.7C244.3,283.7 245.2,282.7 245.2,281.6L245.2,281.3L240.6,211C240.6,210.9 240.5,210.8 240.5,210.6C240.9,210.4 241.1,210.3 241.2,210.2C242,209.7 242.4,208.8 242.2,207.9C242,207 241.2,206.3 240.3,206.3L240,206.3C241.8,195.8 245.4,171.3 246.4,142.4C247.5,109.5 246,83.9 245.5,76.9L254.7,75.5C255.8,75.3 256.6,74.4 256.5,73.3L256.2,60.4ZM69.7,19.3L242.3,59.9L230,61.9L57.8,20.7L69.7,19.3ZM47.9,22.8L227.8,65.8L227.8,74.3L48.5,31.9L47.9,22.8ZM220.7,135C223.4,159.9 229.3,194 231.4,205.7C227.4,198.8 205.1,160.6 198.3,143.2C190.3,122.6 182.2,79.4 180,67.4L195.5,71.1C196,75 201.3,116.7 209,138.8C209.3,139.7 210.1,140.2 211,140.2C211.2,140.2 211.5,140.2 211.7,140.1C212.8,139.7 213.4,138.5 213,137.4C206.1,117.6 201,80.7 199.9,72.1L216.8,76.1C217,82.5 217.7,108.5 220.7,135ZM77.4,240.9L75.3,187.2L85.1,240.1C82.4,239.9 79.5,240 77.4,240.9ZM69.9,170.2C71.1,163.9 75.8,140.2 79.9,110.7C84,81.8 82,52.9 81.3,44.1L97.9,48C97.5,52.5 93.2,97.2 84.9,116.3C84.4,117.4 84.9,118.6 86,119.1C86.3,119.2 86.6,119.3 86.9,119.3C87.7,119.3 88.5,118.8 88.9,118C97.4,98.7 101.5,56.3 102.2,49L116.1,52.3L116.1,52.5C116.1,52.9 114.5,88.9 105.3,111.5C96.5,133.1 73,166.6 70.4,170.3C70.1,170.3 70,170.2 69.9,170.2ZM56.7,38.3L77,43.1C77.6,49.4 80,79.7 75.8,110.1C72,137.1 67.7,159.3 66.1,167.5C64.3,157.8 59.9,131.1 58.4,99.8C56.7,67 56.6,44.9 56.7,38.3ZM60.2,211.9C61.5,204.7 64.2,191.3 66,182.4L60.6,240.9C58.6,240.5 56.6,239.4 55.3,238.5L60.2,211.9ZM69.8,244C66.8,244.2 65.3,243.9 64.6,243.6L70.6,178.1L73.2,243.7C72.3,243.8 71.2,243.9 69.8,244ZM86.3,245.7C84.6,245.3 82.9,244.8 81.6,244.4C82.8,244.3 84.2,244.3 85.5,244.4C85.8,244.4 86,244.4 86.2,244.3L86.2,245.7L86.3,245.7ZM89.7,240.1C90.4,239.7 91.7,239.2 93.2,238.7L94.2,241.9C92.2,241.3 90.4,240.6 89.7,240.1ZM95,233.9C93.1,234.3 90.7,234.9 88.7,235.8L78.9,183.1C81.9,190.7 86.1,201.5 87.7,206.9C89.7,214 93.5,228.3 95,233.9ZM117.7,124.6C100.6,155.7 79.4,169.9 76.3,171.9C75.8,171.8 75.2,171.7 74.6,171.6C79.7,164.3 100.6,134 109.1,113.2C118,91.3 119.9,58.6 120.2,53.4L138.7,57.8C138,64.9 133.6,99.6 117.7,124.6ZM160.1,62.8L175.3,66.4C176.8,75.1 185.4,122.3 194.1,144.8C200.3,160.8 218.7,192.9 225.6,204.7C219.6,197.6 191,163.5 179.7,139.1C161.4,99.9 160.1,70.1 160.1,62.8ZM201.5,270.4C201.3,270.2 201,270 200.7,269.9C199.3,269.4 197.1,267.1 195.5,265.2C197.7,261.3 204.2,249.4 208.1,241.7C211.9,234.1 222.5,217.6 225.9,212.4C226.1,212.5 226.2,212.5 226.4,212.6L201.5,270.4ZM208.8,276.1C206.4,275.4 205.5,273.9 205.1,273.1L229,217.7L215,275.2C213.8,275.7 211.4,276.8 208.8,276.1ZM219.4,275.2L228.2,239.3L222.1,275.2C221,275.1 220.2,275.1 219.4,275.2ZM240.7,278.4C239,278.1 237.2,278.1 236,278.1C231.4,278.1 229.6,279.4 228.4,280.2C227.6,280.7 227.7,280.7 227,280.6C226,280.4 225.6,280.1 225.4,279.9L236.5,214.9L240.7,278.4ZM242,142.3C241,171.2 237.4,195.6 235.6,205.9C233.7,195.1 227.6,160 224.8,134.6C222,109.5 221.3,85 221.1,77.2L229.6,79.2C229.8,79.2 229.9,79.3 230.1,79.3L230.4,79.3L241.1,77.7C241.7,84.9 243.2,110.2 242,142.3ZM232.1,74.7L232.1,66L252,62.8L252.2,71.8L232.1,74.7Z" style="fill:rgb(77,77,77);fill-rule:nonzero;stroke:black;stroke-width:3px;"/>
    </g>
</svg>
