<svg height="512pt" viewBox="0 0 512.00212 512" width="512pt" xmlns="http://www.w3.org/2000/svg"><path d="m477.867188 0h-443.734376c-18.851562 0-34.132812 15.285156-34.132812 34.132812 0 18.851563 15.28125 34.136719 34.132812 34.136719v418.132813c.015626 14.132812 11.46875 25.582031 25.601563 25.597656h375.464844c14.132812-.015625 25.585937-11.464844 25.601562-25.597656v-418.132813h17.066407v8.53125c0 4.714844 3.820312 8.535157 8.53125 8.535157 4.714843 0 8.535156-3.820313 8.535156-8.535157v-13.28125c13.378906-7.691406 19.902344-23.421875 15.898437-38.324219-4.003906-14.902343-17.535156-25.242187-32.964843-25.195312zm-460.800782 34.132812c0-9.425781 7.640625-17.066406 17.066406-17.066406 9.425782 0 17.066407 7.640625 17.066407 17.066406 0 9.425782-7.640625 17.070313-17.066407 17.070313-9.421874-.011719-17.058593-7.648437-17.066406-17.070313zm426.667969 452.269532c-.007813 4.710937-3.824219 8.527344-8.535156 8.53125h-375.464844c-4.710937-.003906-8.527344-3.820313-8.535156-8.53125v-418.132813h17.066406v110.933594c0 4.710937 3.820313 8.53125 8.535156 8.53125 4.710938 0 8.53125-3.820313 8.53125-8.53125v-110.933594h17.066407v68.265625c0 4.710938 3.820312 8.53125 8.535156 8.53125 4.710937 0 8.53125-3.820312 8.53125-8.53125v-68.265625h17.070312v34.132813c0 4.710937 3.820313 8.53125 8.53125 8.53125 4.714844 0 8.535156-3.820313 8.535156-8.53125v-34.132813h290.132813zm34.132813-435.199219h-414.347657c3.074219-5.167969 4.710938-11.058594 4.746094-17.070313-.035156-6.007812-1.671875-11.902343-4.746094-17.066406h414.347657c9.425781 0 17.066406 7.640625 17.066406 17.066406 0 9.425782-7.640625 17.070313-17.066406 17.070313zm0 0"/><path d="m76.800781 460.800781c-4.714843 0-8.535156 3.820313-8.535156 8.535157 0 4.710937 3.820313 8.53125 8.535156 8.53125h341.332031c4.714844 0 8.535157-3.820313 8.535157-8.53125 0-4.714844-3.820313-8.535157-8.535157-8.535157zm0 0"/><path d="m486.398438 153.601562c4.714843 0 8.535156-3.820312 8.535156-8.535156v-34.132812c0-4.710938-3.820313-8.53125-8.535156-8.53125-4.710938 0-8.53125 3.820312-8.53125 8.53125v34.132812c0 4.714844 3.820312 8.535156 8.53125 8.535156zm0 0"/><path d="m477.867188 213.335938c0 4.710937 3.820312 8.53125 8.53125 8.53125 4.714843 0 8.535156-3.820313 8.535156-8.53125v-34.132813c0-4.714844-3.820313-8.535156-8.535156-8.535156-4.710938 0-8.53125 3.820312-8.53125 8.535156zm0 0"/><path d="m477.867188 281.601562c0 4.710938 3.820312 8.53125 8.53125 8.53125 4.714843 0 8.535156-3.820312 8.535156-8.53125v-34.132812c0-4.714844-3.820313-8.535156-8.535156-8.535156-4.710938 0-8.53125 3.820312-8.53125 8.535156zm0 0"/><path d="m477.867188 349.867188c0 4.714843 3.820312 8.535156 8.53125 8.535156 4.714843 0 8.535156-3.820313 8.535156-8.535156v-34.132813c0-4.710937-3.820313-8.53125-8.535156-8.53125-4.710938 0-8.53125 3.820313-8.53125 8.53125zm0 0"/><path d="m477.867188 418.132812c0 4.714844 3.820312 8.535157 8.53125 8.535157 4.714843 0 8.535156-3.820313 8.535156-8.535157v-34.132812c0-4.710938-3.820313-8.53125-8.535156-8.53125-4.710938 0-8.53125 3.820312-8.53125 8.53125zm0 0"/><path d="m76.800781 238.933594c4.710938 0 8.53125-3.820313 8.53125-8.53125v-17.066406c0-4.714844-3.820312-8.535157-8.53125-8.535157-4.714843 0-8.535156 3.820313-8.535156 8.535157v17.066406c0 4.710937 3.820313 8.53125 8.535156 8.53125zm0 0"/></svg>