<?xml version="1.0" encoding="UTF-8" standalone="no"?>
<!DOCTYPE svg PUBLIC "-//W3C//DTD SVG 1.1//EN" "http://www.w3.org/Graphics/SVG/1.1/DTD/svg11.dtd">
<svg width="100%" height="100%" viewBox="0 0 209 273" version="1.1" xmlns="http://www.w3.org/2000/svg" xmlns:xlink="http://www.w3.org/1999/xlink" xml:space="preserve" xmlns:serif="http://www.serif.com/" style="fill-rule:evenodd;clip-rule:evenodd;stroke-linejoin:round;stroke-miterlimit:2;">
    <g transform="matrix(1,0,0,1,-45.8612,-13.525)">
        <path d="M252.4,266.4C252.2,266 251.8,265.7 251.3,265.6L241.5,263.3L247.2,255.3C247.6,254.7 247.6,253.8 247.1,253.2L237.1,242.2L247.2,228.1C247.7,227.5 247.6,226.5 247.1,226C247.1,226 237.2,215 237.1,215C237,214.9 239.5,211.6 239.7,211.4C241.3,209.1 246.4,202.2 247.2,200.9C247.6,200.2 247.7,199.4 247.1,198.8L237.1,187.8L247.2,173.7C247.7,173.1 247.6,172.1 247.1,171.6L237.1,160.6L247.2,146.5L247.3,146.4C247.7,145.8 247.6,144.9 247.1,144.4L237.1,133.4L247.2,119.3C247.7,118.7 247.6,117.7 247.1,117.2L237.1,106.2L247.2,92.1C247.2,92.1 247.3,92 247.3,91.9C247.7,91.3 247.6,90.4 247.1,89.9L238.3,80.2L251.1,78.3C252,78.2 252.7,77.1 252.5,76.2L249.7,65.5L252.3,60.8C252.8,59.9 252.2,58.6 251.2,58.4L68.1,15.1C67.9,15 67.6,15 67.4,15.1C67.4,15.1 48.9,17.8 48.8,17.8C47.6,18 47.1,19.4 47.7,20.4L50.2,24.2L47.4,35.7C47.2,36.6 47.8,37.5 48.6,37.7L52,38.5L60.4,47.8L50.5,61.9C50,62.5 50,63.5 50.6,64L60.6,75L50.5,89.2C50,89.8 50.1,90.8 50.6,91.3L60.6,102.3L50.5,116.4C50,117 50.1,118 50.6,118.5L60.6,129.5L50.5,143.6C50,144.2 50.1,145.2 50.6,145.7L60.6,156.7L50.5,170.8C50,171.4 50.1,172.4 50.6,172.9L60.6,183.9L50.5,198C50,198.6 50.1,199.6 50.6,200.1L60.6,211.1L50.9,224.7L48.9,225C48,225.3 47.2,226.2 47.6,227.2L50.3,235.4L47.8,239.1C47.2,240.1 47.7,241.3 48.8,241.7L231.9,285L232.5,285L251.1,282.3C252.4,282.1 253,280.5 252.1,279.6L249.8,276.8L252.5,267.8C252.6,267.3 252.6,266.8 252.4,266.4ZM52.8,237.7L232.6,280L231.7,281.4L51.8,239.1L52.8,237.7ZM53.3,234.4L51.6,229.1L231,271.4L232.7,276.7L53.3,234.4ZM239.4,266.2L242,266.8L238.6,267.3L239.4,266.2ZM51.1,34.8L53.3,25.9L233.3,68.3L231.1,77.2L51.1,34.8ZM246.4,65.5L248.9,75L234.8,77.1L234.5,77.1L236.9,67.3C237,66.9 236.9,66.4 236.7,66.1L236.7,66L235.2,63.8L247.9,61.9L246.6,64.3C246.3,64.7 246.3,65.1 246.4,65.5ZM231.3,64L231.6,64.4L53,22.4L52.8,22L231.3,64ZM67.6,18.4L242.1,59.5L232.4,60.9L57.9,19.8L67.6,18.4ZM57.8,39.8L231.9,80.8C232.1,80.9 232.4,80.9 232.6,80.8L234.4,80.5L241.1,87.9L220.3,83L220.3,80C220.3,77.8 217,77.8 217,80L217,82.3L83.2,50.8L83.2,47.8C83.2,45.6 79.9,45.6 79.9,47.8L79.9,50L63.6,46.2L57.8,39.8ZM63.4,49.5L79.9,53.4L79.9,60.3C79.9,61.2 80.6,62 81.6,62C82.5,62 83.3,61.3 83.3,60.3L83.3,54.2L217,85.7L217,92.6C217,93.5 217.7,94.3 218.7,94.3C219.6,94.3 220.4,93.6 220.4,92.6L220.4,86.5L243.2,91.9L234.4,104.2L54.6,61.8L63.4,49.5ZM56.6,65.7L234.1,107.5L241,115.2L220.2,110.3L220.2,107.3C220.2,105.1 216.9,105.1 216.9,107.3L216.9,109.6L83.2,78L83.2,75C83.2,72.8 79.9,72.8 79.9,75L79.9,77.3L63.6,73.5L56.6,65.7ZM63.4,76.8L79.9,80.7L79.9,87.6C79.9,88.5 80.6,89.3 81.6,89.3C82.5,89.3 83.3,88.6 83.3,87.6L83.3,81.5L217,113L217,119.9C217,120.8 217.7,121.6 218.7,121.6C219.6,121.6 220.4,120.9 220.4,119.9L220.4,113.8L243.2,119.2L234.4,131.5L54.6,89.1L63.4,76.8ZM56.6,93L234.1,134.8L241,142.5L220.2,137.6L220.2,134.6C220.2,132.4 216.9,132.4 216.9,134.6L216.9,136.9L83.2,105.3L83.2,102.3C83.2,100.1 79.9,100.1 79.9,102.3L79.9,104.6L63.6,100.8L56.6,93ZM63.4,104L79.9,107.9L79.9,114.8C79.9,115.7 80.6,116.5 81.6,116.5C82.5,116.5 83.3,115.8 83.3,114.8L83.3,108.7L217,140.2L217,147.1C217,148 217.7,148.8 218.7,148.8C219.6,148.8 220.4,148.1 220.4,147.1L220.4,141L243.2,146.4L234.4,158.7L54.6,116.4L63.4,104ZM56.6,120.3L234.1,162L241,169.7L220.2,164.8L220.2,161.8C220.2,159.6 216.9,159.6 216.9,161.8L216.9,164.1L83.2,132.5L83.2,129.5C83.2,127.3 79.9,127.3 79.9,129.5L79.9,131.8L63.6,128L56.6,120.3ZM63.4,131.3L79.9,135.2L79.9,142.1C79.9,143 80.6,143.8 81.6,143.8C82.5,143.8 83.3,143.1 83.3,142.1L83.3,136L217,167.5L217,174.4C217,175.3 217.7,176.1 218.7,176.1C219.6,176.1 220.4,175.4 220.4,174.4L220.4,168.3L243.2,173.7L234.4,186L54.6,143.6L63.4,131.3ZM56.6,147.5L234.1,189.3L241,197L220.2,192.1L220.2,189.1C220.2,186.9 216.9,186.9 216.9,189.1L216.9,191.4L83.2,159.8L83.2,156.8C83.2,154.6 79.9,154.6 79.9,156.8L79.9,159.1L63.6,155.3L56.6,147.5ZM63.4,158.6L79.9,162.5L79.9,169.4C79.9,170.3 80.6,171.1 81.6,171.1C82.5,171.1 83.3,170.4 83.3,169.4L83.3,163.3L217,194.7L217,201.6C217,202.5 217.7,203.3 218.7,203.3C219.6,203.3 220.4,202.6 220.4,201.6L220.4,195.5L243.2,200.9L234.4,213.2L54.6,170.9L63.4,158.6ZM56.6,174.8L234.1,216.6L241,224.3L220.2,219.4L220.2,216.4C220.2,214.2 216.9,214.2 216.9,216.4L216.9,218.7L83.2,187.1L83.2,184.1C83.2,181.9 79.9,181.9 79.9,184.1L79.9,186.3L63.6,182.5L56.6,174.8ZM63.4,185.8L79.9,189.7L79.9,196.6C79.9,197.5 80.6,198.3 81.6,198.3C82.5,198.3 83.3,197.6 83.3,196.6L83.3,190.5L217,222L217,228.9C217,229.8 217.7,230.6 218.7,230.6C219.6,230.6 220.4,229.9 220.4,228.9L220.4,222.8L243.2,228.2L234.4,240.5L54.6,198.1L63.4,185.8ZM56.6,202L234.1,243.8L241,251.5L220.2,246.6L220.2,243.6C220.2,241.4 216.9,241.4 216.9,243.6L216.9,245.9L83.2,214.3L83.2,211.3C83.2,209.1 79.9,209.1 79.9,211.3L79.9,213.6L63.6,209.8L56.6,202ZM63.4,213.1L79.9,217L79.9,223.9C79.9,224.8 80.6,225.6 81.6,225.6C82.5,225.6 83.3,224.9 83.3,223.9L83.3,217.8L217,249.2L217,256.1C217,257 217.7,257.8 218.7,257.8C219.6,257.8 220.4,257.1 220.4,256.1L220.4,250L243.2,255.4L237.5,263.4L234.4,267.7L54.6,225.4L63.4,213.1ZM235.8,281.1L236.6,279.9C236.9,279.5 236.9,278.9 236.8,278.4L234.5,271.3L248.6,269.2L246.4,276.5C246.2,277.1 246.4,277.7 246.7,278.1L247.7,279.3L235.8,281.1Z" style="fill:rgb(77,77,77);fill-rule:nonzero;stroke:black;stroke-width:3px;"/>
    </g>
</svg>
