<?xml version="1.0" encoding="utf-8"?>
<!-- Generator: Adobe Illustrator 22.0.1, SVG Export Plug-In . SVG Version: 6.00 Build 0)  -->
<!DOCTYPE svg PUBLIC "-//W3C//DTD SVG 1.1//EN" "http://www.w3.org/Graphics/SVG/1.1/DTD/svg11.dtd">
<svg version="1.1" id="Laag_1" xmlns="http://www.w3.org/2000/svg" xmlns:xlink="http://www.w3.org/1999/xlink" x="0px" y="0px"
	 viewBox="0 0 300 300" style="enable-background:new 0 0 300 300;" xml:space="preserve">
<style type="text/css">
	.st0{fill:#4D4D4D;}
</style>
<path class="st0" d="M254,78c0.7-0.4,1.2-1.1,1.2-1.9c0,0,0-14.6,0-14.6c0-0.9-0.7-1.9-1.7-2.1L65.4,15.1c-0.3-0.1-0.6-0.1-0.9,0
	c0,0-17.9,2.6-17.9,2.7c-1,0.1-1.8,1.1-1.8,2.1v14.6c0,1,0.7,1.9,1.7,2.1l13.7,3.2c0,0-14.4,8.7-14.4,8.7c-1.6,1-1.2,3.4,0.5,3.9
	c0,0,0.1,0,0.1,0l29.7,7v4.1l-10.8-2.6c0,0,0,0-0.1,0c-0.5-0.1-1,0-1.5,0.3c0,0-17.9,10.8-17.9,10.8c-1.6,1-1.1,3.5,0.7,3.9l29.7,7
	V87l-10.9-2.6c-0.6-0.1-1.1,0-1.6,0.3c0,0-17.9,10.8-17.9,10.8c-1.6,1-1.1,3.5,0.7,3.9l29.8,7v4.1c0,0-10.9-2.6-10.9-2.6
	c-0.5-0.1-1.1,0-1.6,0.3L45.8,119c-1.6,1-1.2,3.4,0.6,3.9l29.7,7v4.1c0,0-10.7-2.5-10.8-2.6c-0.5-0.1-1.1,0-1.6,0.2
	c0,0-17.9,10.8-17.9,10.8c-1.6,1-1.2,3.5,0.6,3.9l29.7,7v4.1c0,0-10.8-2.5-10.8-2.6c-0.5-0.1-1.1,0-1.6,0.3l-17.9,10.8
	c-0.7,0.4-1.1,1.3-1,2.1c0.1,0.9,0.8,1.6,1.6,1.8l29.8,7v4.1c0,0-10.7-2.5-10.8-2.6c-0.5-0.1-1.1,0-1.6,0.3l-17.9,10.8
	c-0.7,0.4-1.1,1.3-1,2.1c0.1,0.9,0.8,1.6,1.6,1.8l29.8,7v4.1c0,0-10.8-2.5-10.8-2.6c-0.5-0.1-1.1,0-1.6,0.2c0,0-17.9,10.8-18,10.8
	c-1.6,1-1.1,3.4,0.7,3.9l29.7,7v4.1l-10.9-2.6c-0.5-0.1-1.1,0-1.6,0.3c0,0-17.9,10.8-17.9,10.8c-1.6,0.9-1.2,3.5,0.6,3.9l188.2,44.3
	c0.5,0.1,1.1,0,1.6-0.2l17.9-10.8c1.6-1,1.2-3.5-0.6-3.9l-29.7-7v-4.1c0,0,10.8,2.6,10.9,2.6c0.5,0.1,1,0,1.5-0.2c0,0,0.1,0,0.1,0
	c0,0,17.9-10.8,17.9-10.8c1.6-1,1.2-3.5-0.6-3.9l-29.7-7v-4.1c0,0,10.7,2.5,10.8,2.6c0.5,0.1,1.1,0,1.6-0.2c0,0,17.9-10.8,17.9-10.8
	c1.6-1,1.2-3.5-0.6-3.9l-29.8-7v-4.1l10.8,2.6c0.5,0.2,1.1,0,1.6-0.2c0,0,17.9-10.8,17.9-10.8c0.7-0.4,1.1-1.3,1-2.1
	c-0.1-0.8-0.8-1.6-1.6-1.8l-29.8-7v-4.1l10.8,2.6c0.5,0.1,1.1,0,1.6-0.3c0,0,17.9-10.8,17.9-10.8c1.6-1,1.2-3.5-0.6-3.9l-29.7-7
	v-4.1l10.8,2.6c0.6,0.1,1.1,0,1.6-0.3l17.9-10.8c1.6-1,1.2-3.5-0.6-3.9l-29.8-7v-4.1l10.8,2.6c0.5,0.1,1.1,0,1.6-0.3
	c0,0,17.9-10.8,17.9-10.8c1.6-1,1.2-3.5-0.6-3.9l-29.7-7v-4.1l10.8,2.6c0.5,0.1,1.1,0,1.6-0.2c0,0,17.9-10.8,17.9-10.8
	c1.6-1,1.2-3.5-0.6-3.9l-29.7-7v-4.1c0,0,10.8,2.6,10.8,2.6c0.5,0.1,1.1,0,1.6-0.3c0,0,17.9-10.8,17.9-10.8c1.6-1,1.2-3.4-0.6-3.9
	l-9.1-2.1c0,0,8.9-1.3,8.9-1.3C253.6,78.2,253.8,78.1,254,78z M237.3,66l13.6-2v10.3l-13.6,2V66z M64.8,19.3L241.6,61l-6.4,0.9
	L58.3,20.3L64.8,19.3z M49.1,22.5L233,65.8V76L49.1,32.7V22.5z M247.4,272.9l-12.7,7.7L52.6,237.7l12.7-7.7l11,2.6v5.8
	c0,2.8,4.3,2.8,4.3,0v-4.8l139,32.7v5.8c0,2.8,4.3,2.8,4.3,0v-4.8L247.4,272.9z M80.5,229.2v-4.1l139,32.7v4.1L80.5,229.2z
	 M247.4,249.4l-12.7,7.7L52.6,214.1l12.7-7.6l11,2.6v5.8c0,2.8,4.3,2.8,4.3,0v-4.8l139,32.7v5.8c0,2.8,4.3,2.8,4.3,0v-4.8
	L247.4,249.4z M80.5,205.7v-4.1l139,32.7v4.1L80.5,205.7z M247.4,225.8l-12.7,7.7L52.6,190.6l12.7-7.7l11,2.6v5.8
	c0,2.8,4.3,2.8,4.3,0v-4.8l139,32.7v5.8c0,2.8,4.3,2.8,4.3,0v-4.8L247.4,225.8z M80.5,182.1V178l139,32.7v4.1L80.5,182.1z
	 M247.4,202.3l-12.7,7.6L52.6,167.1l12.7-7.7l11,2.6v5.8c0,2.8,4.3,2.8,4.3,0V163l139,32.7v5.8c0,2.8,4.3,2.8,4.3,0v-4.8
	L247.4,202.3z M80.5,158.6v-4.1l139,32.7v4.1L80.5,158.6z M247.4,178.8l-12.7,7.7L52.6,143.5l12.7-7.6l11,2.6v5.8
	c0,2.8,4.3,2.8,4.3,0v-4.8l139,32.7v5.8c0,2.8,4.3,2.8,4.3,0v-4.8L247.4,178.8z M80.5,135.1V131l139,32.7v4.1L80.5,135.1z
	 M247.4,155.2l-12.7,7.6L52.6,120l12.7-7.6l11,2.6v5.8c0,2.8,4.3,2.8,4.3,0v-4.8l139,32.7v5.8c0,2.8,4.3,2.8,4.3,0v-4.8L247.4,155.2
	z M80.5,111.5v-4.1l139,32.7v4.1L80.5,111.5z M247.4,131.7l-12.7,7.7L52.6,96.5l12.7-7.7l11,2.6v5.8c0,2.8,4.3,2.8,4.3,0v-4.8
	l139,32.7v5.8c0,2.8,4.3,2.8,4.3,0v-4.8L247.4,131.7z M80.5,88v-4.1l139,32.7v4.1L80.5,88z M247.4,108.2l-12.7,7.7L52.6,72.9
	l12.7-7.6l11,2.6v5.8c0,2.8,4.3,2.8,4.3,0v-4.8l139,32.7v5.8c0,2.8,4.3,2.8,4.3,0v-4.8L247.4,108.2z M80.5,64.5v-4.1l139,32.7v4.1
	L80.5,64.5z M234.8,92.3L52.6,49.4l12.7-7.7l11,2.6v5.8c0,2.8,4.3,2.8,4.3,0v-4.8l139,32.7v5.8c0,2.8,4.3,2.8,4.3,0v-4.8l23.6,5.6
	L234.8,92.3z"/>
</svg>
