<?xml version="1.0" encoding="UTF-8" standalone="no"?>
<!DOCTYPE svg PUBLIC "-//W3C//DTD SVG 1.1//EN" "http://www.w3.org/Graphics/SVG/1.1/DTD/svg11.dtd">
<svg width="100%" height="100%" viewBox="0 0 214 273" version="1.1" xmlns="http://www.w3.org/2000/svg" xmlns:xlink="http://www.w3.org/1999/xlink" xml:space="preserve" xmlns:serif="http://www.serif.com/" style="fill-rule:evenodd;clip-rule:evenodd;stroke-linejoin:round;stroke-miterlimit:2;">
    <g transform="matrix(1,0,0,1,-43.2848,-13.525)">
        <path d="M254,78C254.7,77.6 255.2,76.9 255.2,76.1L255.2,61.5C255.2,60.6 254.5,59.6 253.5,59.4L65.4,15.1C65.1,15 64.8,15 64.5,15.1C64.5,15.1 46.6,17.7 46.6,17.8C45.6,17.9 44.8,18.9 44.8,19.9L44.8,34.5C44.8,35.5 45.5,36.4 46.5,36.6L60.2,39.8L45.8,48.5C44.2,49.5 44.6,51.9 46.3,52.4L46.4,52.4L76.1,59.4L76.1,63.5L65.3,60.9L65.2,60.9C64.7,60.8 64.2,60.9 63.7,61.2L45.8,72C44.2,73 44.7,75.5 46.5,75.9L76.2,82.9L76.2,87L65.3,84.4C64.7,84.3 64.2,84.4 63.7,84.7L45.8,95.5C44.2,96.5 44.7,99 46.5,99.4L76.3,106.4L76.3,110.5L65.4,107.9C64.9,107.8 64.3,107.9 63.8,108.2L45.8,119C44.2,120 44.6,122.4 46.4,122.9L76.1,129.9L76.1,134C76.1,134 65.4,131.5 65.3,131.4C64.8,131.3 64.2,131.4 63.7,131.6L45.8,142.4C44.2,143.4 44.6,145.9 46.4,146.3L76.1,153.3L76.1,157.4C76.1,157.4 65.3,154.9 65.3,154.8C64.8,154.7 64.2,154.8 63.7,155.1L45.8,165.9C45.1,166.3 44.7,167.2 44.8,168C44.9,168.9 45.6,169.6 46.4,169.8L76.2,176.8L76.2,180.9C76.2,180.9 65.5,178.4 65.4,178.3C64.9,178.2 64.3,178.3 63.8,178.6L45.9,189.4C45.2,189.8 44.8,190.7 44.9,191.5C45,192.4 45.7,193.1 46.5,193.3L76.3,200.3L76.3,204.4C76.3,204.4 65.5,201.9 65.5,201.8C65,201.7 64.4,201.8 63.9,202C63.9,202 46,212.8 45.9,212.8C44.3,213.8 44.8,216.2 46.6,216.7L76.3,223.7L76.3,227.8L65.4,225.2C64.9,225.1 64.3,225.2 63.8,225.5L45.9,236.3C44.3,237.2 44.7,239.8 46.5,240.2L234.7,284.5C235.2,284.6 235.8,284.5 236.3,284.3L254.2,273.5C255.8,272.5 255.4,270 253.6,269.6L223.9,262.6L223.9,258.5C223.9,258.5 234.7,261.1 234.8,261.1C235.3,261.2 235.8,261.1 236.3,260.9L236.4,260.9L254.3,250.1C255.9,249.1 255.5,246.6 253.7,246.2L224,239.2L224,235.1C224,235.1 234.7,237.6 234.8,237.7C235.3,237.8 235.9,237.7 236.4,237.5L254.3,226.7C255.9,225.7 255.5,223.2 253.7,222.8L223.9,215.8L223.9,211.7L234.7,214.3C235.2,214.5 235.8,214.3 236.3,214.1L254.2,203.3C254.9,202.9 255.3,202 255.2,201.2C255.1,200.4 254.4,199.6 253.6,199.4L223.8,192.4L223.8,188.3L234.6,190.9C235.1,191 235.7,190.9 236.2,190.6L254.1,179.8C255.7,178.8 255.3,176.3 253.5,175.9L223.8,168.9L223.8,164.8L234.6,167.4C235.2,167.5 235.7,167.4 236.2,167.1L254.1,156.3C255.7,155.3 255.3,152.8 253.5,152.4L223.7,145.4L223.7,141.3L234.5,143.9C235,144 235.6,143.9 236.1,143.6L254,132.8C255.6,131.8 255.2,129.3 253.4,128.9L223.7,121.9L223.7,117.8L234.5,120.4C235,120.5 235.6,120.4 236.1,120.2L254,109.4C255.6,108.4 255.2,105.9 253.4,105.5L223.7,98.5L223.7,94.4L234.5,97C235,97.1 235.6,97 236.1,96.7L254,85.9C255.6,84.9 255.2,82.5 253.4,82L244.3,79.9L253.2,78.6C253.6,78.2 253.8,78.1 254,78ZM237.3,66L250.9,64L250.9,74.3L237.3,76.3L237.3,66ZM64.8,19.3L241.6,61L235.2,61.9L58.3,20.3L64.8,19.3ZM49.1,22.5L233,65.8L233,76L49.1,32.7L49.1,22.5ZM247.4,272.9L234.7,280.6L52.6,237.7L65.3,230L76.3,232.6L76.3,238.4C76.3,241.2 80.6,241.2 80.6,238.4L80.6,233.6L219.6,266.3L219.6,272.1C219.6,274.9 223.9,274.9 223.9,272.1L223.9,267.3L247.4,272.9ZM80.5,229.2L80.5,225.1L219.5,257.8L219.5,261.9L80.5,229.2ZM247.4,249.4L234.7,257.1L52.6,214.1L65.3,206.5L76.3,209.1L76.3,214.9C76.3,217.7 80.6,217.7 80.6,214.9L80.6,210.1L219.6,242.8L219.6,248.6C219.6,251.4 223.9,251.4 223.9,248.6L223.9,243.8L247.4,249.4ZM80.5,205.7L80.5,201.6L219.5,234.3L219.5,238.4L80.5,205.7ZM247.4,225.8L234.7,233.5L52.6,190.6L65.3,182.9L76.3,185.5L76.3,191.3C76.3,194.1 80.6,194.1 80.6,191.3L80.6,186.5L219.6,219.2L219.6,225C219.6,227.8 223.9,227.8 223.9,225L223.9,220.2L247.4,225.8ZM80.5,182.1L80.5,178L219.5,210.7L219.5,214.8L80.5,182.1ZM247.4,202.3L234.7,209.9L52.6,167.1L65.3,159.4L76.3,162L76.3,167.8C76.3,170.6 80.6,170.6 80.6,167.8L80.6,163L219.6,195.7L219.6,201.5C219.6,204.3 223.9,204.3 223.9,201.5L223.9,196.7L247.4,202.3ZM80.5,158.6L80.5,154.5L219.5,187.2L219.5,191.3L80.5,158.6ZM247.4,178.8L234.7,186.5L52.6,143.5L65.3,135.9L76.3,138.5L76.3,144.3C76.3,147.1 80.6,147.1 80.6,144.3L80.6,139.5L219.6,172.2L219.6,178C219.6,180.8 223.9,180.8 223.9,178L223.9,173.2L247.4,178.8ZM80.5,135.1L80.5,131L219.5,163.7L219.5,167.8L80.5,135.1ZM247.4,155.2L234.7,162.8L52.6,120L65.3,112.4L76.3,115L76.3,120.8C76.3,123.6 80.6,123.6 80.6,120.8L80.6,116L219.6,148.7L219.6,154.5C219.6,157.3 223.9,157.3 223.9,154.5L223.9,149.7L247.4,155.2ZM80.5,111.5L80.5,107.4L219.5,140.1L219.5,144.2L80.5,111.5ZM247.4,131.7L234.7,139.4L52.6,96.5L65.3,88.8L76.3,91.4L76.3,97.2C76.3,100 80.6,100 80.6,97.2L80.6,92.4L219.6,125.1L219.6,130.9C219.6,133.7 223.9,133.7 223.9,130.9L223.9,126.1L247.4,131.7ZM80.5,88L80.5,83.9L219.5,116.6L219.5,120.7L80.5,88ZM247.4,108.2L234.7,115.9L52.6,72.9L65.3,65.3L76.3,67.9L76.3,73.7C76.3,76.5 80.6,76.5 80.6,73.7L80.6,68.9L219.6,101.6L219.6,107.4C219.6,110.2 223.9,110.2 223.9,107.4L223.9,102.6L247.4,108.2ZM80.5,64.5L80.5,60.4L219.5,93.1L219.5,97.2L80.5,64.5ZM234.8,92.3L52.6,49.4L65.3,41.7L76.3,44.3L76.3,50.1C76.3,52.9 80.6,52.9 80.6,50.1L80.6,45.3L219.6,78L219.6,83.8C219.6,86.6 223.9,86.6 223.9,83.8L223.9,79L247.5,84.6L234.8,92.3Z" style="fill:rgb(77,77,77);fill-rule:nonzero;stroke:black;stroke-width:3px;"/>
    </g>
</svg>
